HIERARCHY
ROOT Hips
{
  OFFSET 0 0 0
  CHANNELS 6 Xposition Yposition Zposition Zrotation Yrotation Xrotation
  JOINT LeftThigh
  {
    OFFSET 8.409438 0 -5.917753
    CHANNELS 3 Zrotation Yrotation Xrotation
    JOINT LeftLeg
    {
      OFFSET 0 0 -42.358652
      CHANNELS 3 Zrotation Yrotation Xrotation
      JOINT LeftFoot
      {
        OFFSET 0 0 -39.357303
        CHANNELS 3 Zrotation Yrotation Xrotation
      }
    }
  }
  JOINT RightThigh
  {
    OFFSET -8.409438 0 -5.917753
    CHANNELS 3 Zrotation Yrotation Xrotation
    JOINT RightLeg
    {
      OFFSET 0 0 -42.358652
      CHANNELS 3 Zrotation Yrotation Xrotation
      JOINT RightFoot
      {
        OFFSET 0 0 -39.357303
        CHANNELS 3 Zrotation Yrotation Xrotation
      }
    }
  }
  JOINT SpineLow
  {
    OFFSET 0 0 4.719101
    CHANNELS 3 Zrotation Yrotation Xrotation
    JOINT SpineMid
    {
      OFFSET 0 0 12.899191
      CHANNELS 3 Zrotation Yrotation Xrotation
      JOINT Chest
      {
        OFFSET 0 0 12.899191
        CHANNELS 3 Zrotation Yrotation Xrotation
        JOINT LeftShoulder
        {
          OFFSET 7.550562 1.41573 9.438202
          CHANNELS 3 Zrotation Yrotation Xrotation
          JOINT LeftArm
          {
            OFFSET 9.155056 0 4.247191
            CHANNELS 3 Zrotation Yrotation Xrotation
            JOINT LeftForearm
            {
              OFFSET 0 0 25.771955
              CHANNELS 3 Zrotation Yrotation Xrotation
              JOINT LeftHand
              {
                OFFSET 0 0 25.197169
                CHANNELS 3 Zrotation Yrotation Xrotation
              }
            }
          }
        }
        JOINT RightShoulder
        {
          OFFSET -7.550562 1.41573 9.438202
          CHANNELS 3 Zrotation Yrotation Xrotation
          JOINT RightArm
          {
            OFFSET -9.155056 0 4.247191
            CHANNELS 3 Zrotation Yrotation Xrotation
            JOINT RightForearm
            {
              OFFSET 0 0 -25.771955
              CHANNELS 3 Zrotation Yrotation Xrotation
              JOINT RightHand
              {
                OFFSET 0 0 -25.197169
                CHANNELS 3 Zrotation Yrotation Xrotation
              }
            }
          }
        }
        JOINT Neck
        {
          OFFSET 0 0 15.101124
          CHANNELS 3 Zrotation Yrotation Xrotation
          JOINT Head
          {
            OFFSET 0 0 11.325843
            CHANNELS 3 Zrotation Yrotation Xrotation
            End Site
            {
              OFFSET 0 0 14.157303
            }
          }
        }
      }
    }
  }
}
MOTION
Frames: 8
Frame Time: 0.0
0.0  89.887642  0.0  91.176994  -35.92663  -171.068584  -11.406279  -54.905329  -6.352571  -3.904165  28.406889  33.973224  -2.865856  2.992545  5.980842  -17.571969  35.579053  -31.488925  2.312715  12.121157  14.333799  7.090521  4.190825  1.732583  -0.226745  4.862454  0.284278  -0.569081  13.29339  0.740189  -0.569081  13.29339  0.740189  11.495826  13.35947  18.891295  -149.690799  39.487974  -144.758915  -51.565189  15.47388  89.625475  56.762311  11.242756  27.230551  8.013613  -10.290154  17.830383  143.401007  36.165336  52.905658  -17.195075  16.430661  -82.956938  99.498731  29.288561  -17.177629  38.542705  14.146259  16.758882  28.390591  11.725147  11.649965  
0.0  89.887642  0.0  90.655563  -35.279342  -170.974537  -3.969193  -54.714033  -12.907595  -4.517973  31.496337  35.825289  -2.44312  2.669223  6.266975  -19.152947  36.967455  -34.003396  0.735518  11.446848  16.04575  7.660684  4.352876  1.997847  0.046299  5.008299  0.483849  0.231064  13.688092  1.350211  0.231064  13.688092  1.350211  10.379621  12.46598  19.607699  -149.334599  38.543663  -143.80453  -50.651329  15.350653  89.912373  56.658799  11.004256  26.998964  6.086054  -10.658821  16.495226  144.724296  35.009946  53.174846  -18.194631  16.309995  -82.890384  99.407333  27.778179  -15.51991  37.431089  14.302207  16.82466  27.551145  11.81292  11.710941  
0.0  89.887642  0.0  89.424278  -34.918235  -169.807765  4.685322  -54.335439  -20.879631  -3.547875  33.740239  39.260247  -2.842776  2.11534  6.425863  -22.990149  38.451622  -38.469624  -1.171031  10.322391  17.992133  8.576418  4.134924  2.160086  0.273583  5.091568  0.723385  0.914535  13.907287  2.063948  0.914535  13.907288  2.063948  9.382901  11.044608  18.709342  -151.683182  37.424299  -143.993353  -50.085446  14.660676  90.241311  56.777282  10.946586  26.982733  4.466328  -10.66374  14.729819  144.561708  34.339086  53.248032  -19.453372  17.073062  -83.738448  98.573485  26.473767  -14.429822  35.889623  14.729173  16.491879  26.385888  12.067509  11.463669  
0.0  89.887642  0.0  87.983326  -34.880471  -168.283394  15.23114  -53.669059  -30.460389  -2.408736  36.066566  43.954122  -3.741994  1.438667  6.406001  -25.149599  38.04179  -39.304137  -3.481913  10.801142  17.400288  10.368022  4.57471  2.28016  0.281322  5.068091  0.872044  0.967054  13.840457  2.476993  0.967054  13.840457  2.476993  9.625029  9.89017  17.691413  -154.541296  35.571431  -144.276904  -48.791035  14.625486  92.072693  57.54103  11.624286  26.147212  4.428364  -10.383434  13.000957  143.958868  34.276985  53.666181  -20.29851  16.942269  -84.847317  97.968751  25.935458  -13.685946  35.089905  15.253592  16.125134  25.771227  12.416774  11.169543  
0.0  89.887642  0.0  86.873694  -35.209224  -167.487995  24.179397  -52.791969  -38.726034  -0.452027  38.15973  49.706855  -4.758511  0.936841  6.35237  -26.05394  36.878403  -38.30258  -3.071475  11.285891  16.406427  10.63941  4.483086  2.274092  0.248873  4.974063  0.979975  0.89587  13.583056  2.766665  0.89587  13.583056  2.766665  10.950558  9.065684  16.788171  -157.522102  33.984242  -145.17777  -48.068345  14.388466  93.135602  57.712855  12.012657  26.660942  5.136079  -10.209971  11.977792  143.787815  34.577519  54.714315  -20.527691  15.540855  -85.936845  97.879988  25.809955  -13.072341  34.897066  15.520663  15.947294  25.618266  12.601694  11.021939  
0.0  89.887642  0.0  86.265447  -36.174612  -166.954846  30.490294  -52.595213  -45.41282  3.163794  40.052385  56.215111  -5.157468  0.654812  6.306608  -26.335418  34.449518  -37.526932  -1.053062  11.981738  16.305274  10.223434  4.4625  2.122585  0.305832  4.753274  0.95042  1.037061  12.977796  2.690744  1.037061  12.977797  2.690744  12.2237  9.114107  16.950646  -159.505575  33.384234  -145.753524  -47.457415  14.664562  94.124574  57.903999  12.259653  27.497768  5.51707  -9.856129  12.110954  144.084678  35.111687  55.994913  -20.447607  13.904234  -86.961802  97.730313  26.005597  -12.778477  34.892087  15.490186  16.193863  25.610348  12.592963  11.208758  
0.0  89.887642  0.0  85.223678  -36.872237  -166.092055  33.928236  -52.853374  -50.73163  8.379296  42.040808  63.401336  -5.036994  0.447731  6.20367  -27.534032  32.037714  -37.960803  1.038625  12.591368  17.193774  9.726719  4.822549  1.777655  0.364269  4.509835  0.86814  1.171626  12.311738  2.468023  1.171626  12.311739  2.468023  12.905163  9.745725  18.016267  -159.896669  33.464586  -145.583317  -46.440416  15.073697  94.750883  58.110549  12.115069  28.664378  5.119841  -9.165169  13.043012  144.713009  35.807537  57.111821  -20.42803  12.74894  -87.670659  97.286594  26.587575  -12.865208  34.785971  15.317476  16.729367  25.52752  12.49102  11.624344  
0.0  89.887642  0.0  83.509833  -36.88766  -164.932632  35.335125  -53.205037  -54.775104  14.107439  44.537766  70.48323  -4.420557  0.343884  6.025018  -28.679182  31.407238  -38.367655  1.270645  13.193567  18.021214  9.489841  4.814414  1.630158  0.358071  4.395801  0.9032  1.156098  11.999665  2.560558  1.156098  11.999665  2.560558  13.161263  10.053579  18.520299  -159.622411  33.551955  -145.198748  -44.675621  14.834535  95.305348  58.269712  11.378981  29.842849  4.255438  -8.526943  13.535925  145.350839  36.54581  57.735494  -20.598397  12.282806  -88.07232  96.855458  27.232993  -12.98618  34.365517  15.152993  16.81924  25.219945  12.359821  11.712955  
